<svg width="34" height="43" viewBox="0 0 34 43" fill="none" xmlns="http://www.w3.org/2000/svg">
<path fill-rule="evenodd" clip-rule="evenodd" d="M23.1262 0.331671C22.9295 0.124417 22.6597 0 22.3801 0H5.63905C2.5499 0 0 2.53975 0 5.62858V37.2859C0 40.3751 2.5499 42.9148 5.63905 42.9148H28.3609C31.4501 42.9148 34 40.3751 34 37.2859V12.1487C34 11.8792 33.8756 11.6203 33.6994 11.4232L23.1262 0.331671ZM23.4268 3.65918L30.5068 11.0915H25.9044C24.5361 11.0915 23.4268 9.99268 23.4268 8.62442V3.65918ZM28.3609 40.8416H5.63905C3.70076 40.8416 2.07319 39.235 2.07319 37.2859V5.62858C2.07319 3.69028 3.69029 2.07319 5.63905 2.07319H21.3536V8.62442C21.3536 11.1432 23.3856 13.1647 25.9044 13.1647H31.9268V37.2859C31.9268 39.235 30.3097 40.8416 28.3609 40.8416ZM25.5311 33.6893H8.46887C7.89884 33.6893 7.43228 34.1555 7.43228 34.7259C7.43228 35.2959 7.89884 35.7625 8.46887 35.7625H25.5416C26.1116 35.7625 26.5782 35.2959 26.5782 34.7259C26.5782 34.1555 26.1116 33.6893 25.5311 33.6893ZM16.9998 30.2995C16.7097 30.2995 16.4402 30.1751 16.2431 29.9679L10.1791 23.4477C9.78519 23.0332 9.8163 22.38 10.2308 21.9862C10.6453 21.5923 11.2985 21.6234 11.6924 22.0379L15.9632 26.6299V15.3105C15.9632 14.7402 16.4297 14.2739 16.9998 14.2739C17.5698 14.2739 18.0364 14.7402 18.0364 15.3105V26.6299L22.3176 22.0379C22.701 21.6231 23.3644 21.5923 23.7792 21.9862C24.1937 22.3696 24.2248 23.0329 23.8309 23.4477L17.7564 29.9679C17.5596 30.1751 17.2902 30.2995 16.9998 30.2995Z" fill="#86BC42"/>
</svg>
