<svg width="22" height="28" viewBox="0 0 22 28" fill="none" xmlns="http://www.w3.org/2000/svg">
<path d="M19.6154 20.0149L15.0466 17.7861C14.6157 17.5756 14.3478 17.1528 14.3478 16.6824V15.1046C14.4573 14.9739 14.5726 14.8251 14.6917 14.6608C15.2843 13.8441 15.7592 12.9351 16.1045 11.9546C16.7793 11.6527 17.2174 11.0017 17.2174 10.2667V8.4C17.2174 7.9506 17.0452 7.5152 16.7391 7.175V4.6928C16.7659 4.43613 16.8711 2.90827 15.7386 1.6478C14.7563 0.5544 13.1622 0 11 0C8.83778 0 7.24374 0.5544 6.26139 1.64733C5.12887 2.9078 5.23409 4.43613 5.26087 4.6928V7.175C4.95478 7.5152 4.78261 7.9506 4.78261 8.4V10.2667C4.78261 10.8346 5.04709 11.3643 5.49857 11.7175C5.93665 13.4101 6.85348 14.6855 7.17391 15.0948V16.639C7.17391 17.0907 6.92139 17.5051 6.51535 17.7217L2.24878 19.9925C0.861348 20.7312 0 22.1471 0 23.6889V25.2C0 27.4148 7.19544 28 11 28C14.8046 28 22 27.4148 22 25.2V23.7799C22 22.1755 21.086 20.7326 19.6154 20.0149ZM21.0435 25.2C21.0435 25.8333 17.4986 27.0667 11 27.0667C4.50139 27.0667 0.956522 25.8333 0.956522 25.2V23.6889C0.956522 22.4891 1.62704 21.3864 2.70648 20.8124L6.97304 18.5416C7.68709 18.1613 8.13043 17.4319 8.13043 16.639V14.7635L8.019 14.6337C8.00752 14.6202 6.8353 13.2365 6.38813 11.3367L6.34461 11.1519L6.18152 11.0493C5.90461 10.8747 5.73913 10.5821 5.73913 10.2667V8.4C5.73913 8.1382 5.85296 7.89413 6.05957 7.71167L6.21739 7.57307V4.66667L6.21309 4.60553C6.21165 4.59293 6.04904 3.29933 6.9807 2.2624C7.77317 1.3804 9.1257 0.933333 11 0.933333C12.8676 0.933333 14.2173 1.37713 15.0107 2.25307C15.9419 3.2802 15.7879 4.59433 15.7869 4.60553L15.7826 7.57307L15.9404 7.71213C16.147 7.89413 16.2609 8.1382 16.2609 8.4V10.2667C16.2609 10.6741 15.9873 11.0306 15.5808 11.1529L15.3426 11.2243L15.2661 11.4553C14.9461 12.4264 14.4903 13.3233 13.9107 14.1213C13.7687 14.3178 13.6304 14.4919 13.5104 14.6249L13.3913 14.7574V16.6824C13.3913 17.5084 13.8614 18.2509 14.6185 18.6205L19.1873 20.8493C20.3323 21.4079 21.0435 22.5307 21.0435 23.7799V25.2Z" fill="#86BC42"/>
</svg>
